<?xml version="1.0" standalone="no"?>
<!DOCTYPE svg PUBLIC "-//W3C//DTD SVG 20010904//EN"
 "http://www.w3.org/TR/2001/REC-SVG-20010904/DTD/svg10.dtd">
<svg version="1.0" xmlns="http://www.w3.org/2000/svg"
 width="238.000000pt" height="230.000000pt" viewBox="0 0 238.000000 230.000000"
 preserveAspectRatio="xMidYMid meet">

<g transform="translate(0.000000,230.000000) scale(0.100000,-0.100000)"
fill="#000000" stroke="none">
<path d="M1728 1922 c-31 -31 -78 -77 -105 -102 -58 -54 -94 -127 -118 -235
-25 -120 -53 -184 -82 -191 -21 -6 -162 16 -393 59 -36 7 -141 12 -235 12
-165 0 -172 -1 -225 -27 -69 -34 -95 -73 -111 -162 -10 -57 -9 -81 5 -145 9
-42 20 -170 25 -286 11 -227 27 -309 79 -415 24 -48 32 -55 61 -58 29 -3 32
-1 29 20 -2 18 2 24 20 26 34 5 36 24 9 78 -28 57 -37 98 -43 204 l-4 77 70
67 c39 36 75 66 80 66 12 0 277 -78 308 -90 16 -7 22 -18 22 -40 0 -17 10 -45
23 -61 21 -29 22 -40 22 -209 0 -161 2 -180 19 -199 11 -12 25 -21 32 -21 19
0 27 41 15 74 -33 85 8 366 50 341 3 -3 8 -62 11 -132 6 -141 22 -198 60 -212
39 -15 42 5 9 70 -17 34 -31 76 -31 93 0 63 34 167 105 322 21 46 33 58 111
105 161 97 188 147 210 389 8 85 14 200 12 255 l-3 99 45 8 c28 6 66 4 103 -3
66 -14 80 -7 75 37 -2 23 -18 39 -82 83 l-78 54 6 47 c6 45 5 48 -14 43 -11
-3 -20 0 -20 6 0 20 -15 11 -72 -47z m-1124 -1324 c4 -18 10 -51 13 -73 5 -37
4 -39 -12 -24 -19 19 -36 147 -18 136 6 -4 14 -21 17 -39z"/>
</g>
</svg>
